<svg xmlns="http://www.w3.org/2000/svg" viewBox="0 0 48 48" id="database-management">
  <path d="M5,26H43a2,2,0,0,0,2-2V18a2,2,0,0,0-2-2H37V14h6a2,2,0,0,0,2-2V6a2,2,0,0,0-2-2H5A2,2,0,0,0,3,6v6a2,2,0,0,0,2,2h6v2H5a2,2,0,0,0-2,2v6A2,2,0,0,0,5,26Zm12-4H13V20h4Zm24,0H31V20H41ZM31,8H41v2H31ZM13,8h4v2H13ZM7,8h4v2H7Zm10,6H31v2H17ZM7,20h4v2H7ZM46,32v6a2,2,0,0,1-2,2H41v2h2v2H37V42h2V40H36a2,2,0,0,1-2-2V36H30a2,2,0,0,1-2,2H20a2,2,0,0,1-2-2H14v2a2,2,0,0,1-2,2H9v2h2v2H5V42H7V40H4a2,2,0,0,1-2-2V32a2,2,0,0,1,2-2h8a2,2,0,0,1,2,2v2h4a2,2,0,0,1,2-2h1V27h6v5h1a2,2,0,0,1,2,2h4V32a2,2,0,0,1,2-2h8A2,2,0,0,1,46,32Z"></path>
</svg>

